# xmcd
#
# Track frame offsets: 
#        150
#        15869
#        31451
#        44920
#        56999
#        71968
#        90554
#        105878
#        122101
#        141663
#        158972
#        176298
#
# Disc length: 2608 seconds
#
# Revision: 0
# Processed by: cddbd v1.5.2PL0 Copyright (c) Steve Scherf et al.
# Submitted via: ExactAudioCopy v1.0b1
#
DISCID=a80a2e0c
DTITLE=The Lost Fingers - Rendez-vous rose
DYEAR=2009
DGENRE=Blues
TTITLE0=Encore et encore
TTITLE1=Voyage voyage
TTITLE2=Les bétises
TTITLE3=Besoin de rien, envie de toi
TTITLE4=Belleville rendez-vous
TTITLE5=Coeur de loup
TTITLE6=Ca plane pour moi
TTITLE7=On va s'aimer
TTITLE8=Ca fait rire les oiseaux
TTITLE9=La dame en bleu
TTITLE10=Pump Up The Jam
TTITLE11=Billie Jean
EXTD=
EXTT0=
EXTT1=
EXTT2=
EXTT3=
EXTT4=
EXTT5=
EXTT6=
EXTT7=
EXTT8=
EXTT9=
EXTT10=
EXTT11=
PLAYORDER=
